# xmcd
#
# Track frame offsets:
#  150
#  20897
#  35783
#  63064
#  87146
#  105227
#  120524
#  140924
#  158600
#  182109
#  196772
#  250645
#  275308
#  297798
#  315447
#
# Disc length: 4571 seconds
#
# Revision: 0
# Processed by: cddbd v1.5.1PL2 Copyright (c) Steve Scherf et al.
# Submitted via: Collectorz.com_Music_Collector 6.9
#
DISCID=c511d90f
DTITLE=Emmylou Harris - House Of Blues, Hollywood 25 June 1997 [CD1]
DYEAR=1998
DGENRE=Bootleg - Country Blues - Folk - Country
TTITLE0=Where Will I Be
TTITLE1=Orphan Girl
TTITLE2=Wrecking Ball
TTITLE3=Pancho and Lefty
TTITLE4=Crescent City
TTITLE5=Two More Bottles Of Wine
TTITLE6=I Ain't Livin' Long Like this
TTITLE7=Love Hurts
TTITLE8=Goodbye
TTITLE9=Sweet Pastures
TTITLE10=Gong Back To Harlem/Deeper Well
TTITLE11=Calling My Children Home
TTITLE12=Sweet Old World
TTITLE13=Every Grain Of Sand
TTITLE14=All My Tears
EXTD=
EXTT0=
EXTT1=
EXTT2=
EXTT3=
EXTT4=
EXTT5=
EXTT6=
EXTT7=
EXTT8=
EXTT9=
EXTT10=
EXTT11=
EXTT12=
EXTT13=
EXTT14=
PLAYORDER=
